<svg xmlns="http://www.w3.org/2000/svg" viewBox="0 0 214.5 306.4">
  <path fill="#72A7D3" d="M141.4 231.5l-87.6-30c-4.2-1.5-6.5-6.1-5.1-10.3L83.1 90.6c1.5-4.2 6.1-6.5 10.3-5.1l87.6 30c4.2 1.5 6.5 6.1 5.1 10.3l-34.4 100.6c-1.4 4.3-6 6.5-10.3 5.1z"/>
  <path fill="#E8F4FC" d="M96.592 91.676l78.25 26.762-34.366 100.486-78.25-26.761z"/>
  <path fill="#A1C2E2" d="M95.8 94c6.8 6.8 17.8 11.8 33 17 17.8 6.1 30.9 8.9 41.3 5.7L96.6 91.6l-.8 2.4z"/>
  <path fill="#E8F4FC" d="M148.3 180.5L79.6 157c-9.3-3.2-12 5.7-15.8 16.5-3.7 10.8-7 19.5 2.3 22.7l68.7 23.5c9.3 3.2 12-5.7 15.8-16.5 3.7-10.9 7-19.5-2.3-22.7z"/>
  <path fill="#E8F4FC" d="M62.493 191.2l29.049 9.935-12.912 37.753-29.048-9.934z"/>
  <path fill="#4061BF" d="M49.592 229.013l29.048 9.935-.938 2.744-29.049-9.935z"/>
  <path fill="#E8F4FC" d="M63.2 284l-29-9.9L46.5 231l33.1 11.3z"/>
  <path fill="#A1C2E2" d="M26.1 271.3s1.3-20.2 13.6-13.5C52 264.5 58 282.2 58 282.2l-31.9-10.9z"/>
  <path fill="#4061BF" d="M26.13 271.34l37.092 12.684-.939 2.744-37.09-12.685z"/>
  <path fill="#A1C2E2" d="M59.6 282.8l3.6 1.2 2.9-7.4c-4.9.3-6.5 6.2-6.5 6.2z"/>
  <path fill="#E8F4FC" d="M127.858 255.697l-29.049-9.934 12.912-37.754 29.048 9.935z"/>
  <path fill="#4061BF" d="M126.868 258.5l-29.049-9.934.939-2.744 29.048 9.934z"/>
  <path fill="#E8F4FC" d="M67.7 76.6l-17.5 25.6 32.3 16.7 14.1-27.3z"/>
  <path fill="none" stroke="#231F20" stroke-miterlimit="10" d="M39.8 48.5L18.2 70.3 45 99.6 69.3 75z"/>
  <path fill="#E8F4FC" d="M39.8 48.5L18.2 70.3 45 99.6 69.3 75z"/>
  <path fill="#4061BF" d="M16.862 69.805l22.374-22.597.924.915L17.785 70.72z"/>
  <path fill="#E8F4FC" d="M8.7 31.6l-4.6 4.6c-5.6 5.6-5.5 14.7.1 20.2l13.1 12.9 21.6-21.8-16.2-16c-3.9-3.8-10.2-3.7-14 .1zM83.4 290.9l29 10 16.7-41.6L96 247.9z"/>
  <path fill="#A1C2E2" d="M120.5 303.6s11.4-16.7-2.5-19c-13.8-2.3-29.4 8.1-29.4 8.1l31.9 10.9z"/>
  <path fill="#4061BF" d="M119.533 306.345L82.442 293.66l.938-2.744 37.091 12.685z"/>
  <path fill="#A1C2E2" d="M87.1 292.2l-3.6-1.2 2.2-7.6c3.7 3.1 1.4 8.8 1.4 8.8zM38.5 48l3-9.2c.8-2.4-.5-4.9-2.9-5.7-2.4-.8-4.9.5-5.7 2.9l-2.3 7c-3.2-.1-6.8.8-9.2 4.4-5 7.8 4.6 13.2 4.6 13.2L38.5 48z"/>
  <path fill="#E8F4FC" d="M173.3 202.5l29.9-6.7-6.8-39.2-33.7 7.6z"/>
  <path fill="#4061BF" d="M204.055 196.867l-31.027 6.964-.285-1.269 31.028-6.964z"/>
  <path fill="#E8F4FC" d="M207.5 214.9l-4-17.9-21 4.7-8.9 2v.1l-5.6 10.6c-1.2 2.2-.3 4.9 1.9 6.1 2.2 1.2 4.9.3 6.1-1.9l.7-1.4 1.9 8.6c1.2 5.3 6.5 8.7 11.8 7.5l6.3-1.4c7.7-1.6 12.6-9.3 10.8-17z"/>
  <path fill="#4061BF" d="M193.1 157.4c.3-2-.4-4.2-1.8-5.7l-26.4 12 28.2-6.3z"/>
  <path fill="#E8F4FC" d="M178.3 123.1L161.4 160l2 4.4 27.9-12.7z"/>
  <path fill="#4061BF" d="M174.8 118.4c2.1.3 3.6 3.1 3.4 4.7l-16.9 37-.7-.4 14.2-41.3zM82.5 118.9c.6.7 2.5 1.6 4.1 1.8l9.9-29.1-14 27.3zM45.9 98.7s1.1 2.2 4.4 3.5l17.5-25.6-21.9 22.1zM101.163 122.498l51.094 17.474-10.193 29.806-51.095-17.475z"/>
  <path fill="#BABABA" d="M102.223 124.34l48.067 16.44-9.287 27.155-48.067-16.439z"/>
  <path fill="#E52C2C" d="M109.5 134.1c-.4 1.3-1.9 2-3.2 1.6-1.3-.4-2-1.9-1.6-3.2.4-1.3 1.9-2 3.2-1.6 1.3.5 2 1.9 1.6 3.2z"/>
  <path fill="#2AC461" d="M104.6 148.3c-.4 1.3-1.9 2-3.2 1.6-1.3-.4-2-1.9-1.6-3.2.4-1.3 1.9-2 3.2-1.6 1.4.5 2.1 1.9 1.6 3.2z"/>
  <path fill="#F9F44B" d="M107.1 141.2c-.4 1.3-1.9 2-3.2 1.6-1.3-.4-2-1.9-1.6-3.2.4-1.3 1.9-2 3.2-1.6 1.3.5 2 1.9 1.6 3.2z"/>
  <path fill="#4475E2" d="M113.924 136.274l17.505 5.986-4.433 12.963-17.505-5.987z"/>
  <path fill="#3F3F3F" d="M136.05 139.836l9.462 3.236-.777 2.27-9.462-3.235zM134.546 144.347l9.462 3.236-.777 2.271-9.462-3.236zM132.947 148.826l9.462 3.236-.776 2.271-9.462-3.236zM131.475 153.243l9.462 3.236-.777 2.271-9.462-3.236zM129.97 157.755l9.462 3.236-.776 2.27-9.462-3.235z"/>
  <path fill="#A1C2E2" d="M79.9 138.6l14.1 4.8-1.3 3.8-14.1-4.8c-1-.4-1.6-1.5-1.2-2.5.3-1.1 1.5-1.6 2.5-1.3zM85.3 122.8l14.1 4.8-1.3 3.8-14.1-4.8c-1-.4-1.6-1.5-1.2-2.5.4-1.1 1.5-1.7 2.5-1.3zM163.4 153.7l-14.1-4.8 1.3-3.8 14.1 4.8c1 .4 1.6 1.5 1.2 2.5-.4 1.1-1.5 1.7-2.5 1.3zM157.9 169.6l-14.1-4.8 1.3-3.8 14.1 4.8c1 .4 1.6 1.5 1.2 2.5-.3 1.1-1.4 1.6-2.5 1.3zM61.8 193.4L83 204.5l-22.8-15.4c.1 1.7.6 3.1 1.6 4.3zM143.9 217.8l-27-1.6 23 4c1.6-.3 2.9-1.2 4-2.4zM50.2 102.2l34.3 13-2 3.7zM163.5 155.5l1.4 8.2-1.5.7-2-4.4zM18.2 70.3l29.1 27.1-2.3 2.2z"/>
  <path fill="#A1C2E2" d="M162.7 164.2l3.5-.8 7.1 39.1zM57.9 204.7L52.5 230l-2.9-1zM106.7 222.8l-4.5 24.2-3.4-1.2z"/>
  <g>
    <circle transform="rotate(-45.001 152.32 56.471)" fill="#E8F4FC" cx="152.3" cy="56.5" r="55.7"/>
    <path fill="#A1C2E2" d="M107.7 45.4c12-35.2 41.6-44.7 70.8-34.7 6.3 2.1 12 5 17 8.5-6.5-6.8-15.1-12-25.1-15.5-29.1-10-58.7-.5-70.8 34.7-11.2 32.6-8.5 48 8.2 59-9.1-10.6-9.1-25.7-.1-52z"/>
    <ellipse transform="rotate(-71.119 151.044 60.186)" fill="#BABABA" cx="151" cy="60.2" rx="43.6" ry="53.4"/>
    <ellipse transform="rotate(-71.119 151.044 60.186)" fill="#2D2D2D" cx="151" cy="60.2" rx="42.5" ry="52"/>
    <path opacity=".5" fill="#2D2D2D" d="M147.2 93.7c-41.6-18.6-42.4-32.5-30.1-60 3-6.7 7.4-11.9 12.7-15.8-12.9 3.4-23.2 11.9-27.8 25.5-9.8 28.5-7.7 42.3 35.4 57 23.8 8.1 37.5 8.9 46.7 3.1-8.9.6-20.5-2.5-36.9-9.8z"/>
    <path fill="#BABABA" d="M99.6 38.4c.2-.7.5-1.4.8-2.1l-7.5-2.6c-.9-.3-1.8 0-2.1.8l-8.5 20.9c-.4 1 .1 2.1 1.2 2.5l10.3 3.5c.7-6.5 2.7-14.1 5.8-23z"/>
    <path fill="#2D2D2D" d="M95.6 41.2c-.3.9-1.4 1.5-2.3 1.1-1-.3-1.5-1.3-1.1-2.3.3-.9 1.4-1.5 2.3-1.1.9.3 1.4 1.4 1.1 2.3z"/>
    <path fill="#4061BF" d="M93.4 52.8c-.6 1.8-2.6 2.8-4.4 2.2-1.8-.6-2.8-2.6-2.2-4.4s2.6-2.8 4.4-2.2 2.8 2.6 2.2 4.4z"/>
    <path fill="#2D2D2D" d="M92.1 52.3c-.4 1.1-1.6 1.7-2.7 1.3-1.1-.4-1.7-1.6-1.3-2.7.4-1.1 1.6-1.7 2.7-1.3 1.1.4 1.7 1.6 1.3 2.7z"/>
    <g>
      <path fill="#BABABA" d="M214.5 76.9c.2-.8-.3-1.6-1.2-1.9l-7.5-2.6c-.2.7-.4 1.4-.7 2.1-3 8.9-6.1 16.1-9.4 21.9l10.2 3.5c1.1.4 2.2-.2 2.4-1.3l6.2-21.7z"/>
      <path fill="#2D2D2D" d="M206.5 79.1c-.3.9.2 2 1.1 2.3.9.3 2-.2 2.3-1.1.3-.9-.2-2-1.1-2.3-1-.3-2 .2-2.3 1.1z"/>
      <path fill="#4061BF" d="M201.1 89.6c-.6 1.8.3 3.8 2.2 4.4 1.8.6 3.8-.3 4.4-2.2s-.3-3.8-2.2-4.4c-1.8-.6-3.7.4-4.4 2.2z"/>
      <path fill="#2D2D2D" d="M202.4 90.1c-.4 1.1.2 2.3 1.3 2.7 1.1.4 2.3-.2 2.7-1.3.4-1.1-.2-2.3-1.3-2.7-1.1-.4-2.3.2-2.7 1.3z"/>
    </g>
    <path fill="#AAA" d="M176 40.1c2.9-3.9 12.9 3.7 16.8 10.8 3.9 7 4.7 13.3 1.3 14.8-4.7 2.1-4.6-5.9-9.7-12.2-3-3.7-11.4-9.3-8.4-13.4z"/>
  </g>
</svg>